#!OML:ASF C:\Vicon Data\Big\jianyuan-13\jianyuan\Session 1\Capture.male.ASF
:FULLY-SPECIFIED
:DEGREES
251
root -5.949787 17.562009 -6.005047 1.889073 10.758609 2.043981
lowerback -11.655899 -1.471088 -5.158918 
upperback 1.705516 -1.192104 -0.606101 
thorax 8.483118 -0.823270 2.036963 
lowerneck -4.805512 -2.721797 3.378949 
upperneck 12.371103 -3.969958 -3.181208 
head 4.356129 -2.129245 -1.741223 
rclavicle 0.000000 0.000000 
rhumerus -44.067490 -19.858909 -74.947363 
rradius 36.198841 
rwrist 26.290569 
rhand -19.092182 -19.313768 
rfingers 0.000000 
rthumb 7.216122 -49.170700 
lclavicle 0.000000 0.000000 
lhumerus -46.266014 42.737540 60.215887 
lradius 21.821643 
lwrist -74.449265 
lhand -18.754127 -0.612329 
lfingers 0.000000 
lthumb 7.542479 29.233145 
rfemur -40.544233 2.399189 11.174763 
rtibia 27.189895 
rfoot -12.507586 -11.500977 
rtoes -34.944898 
lfemur 7.154406 -4.186659 -26.264973 
ltibia 10.075021 
lfoot -20.551372 0.058282 
ltoes -33.834083 
252
root -5.944209 17.538553 -5.885570 1.930781 10.614681 2.231033
lowerback -11.759777 -1.336446 -5.135237 
upperback 1.656696 -1.007201 -0.698689 
thorax 8.473075 -0.730671 1.959030 
lowerneck -4.832155 -2.796222 3.348433 
upperneck 12.447770 -4.079500 -3.118131 
head 4.382519 -2.182259 -1.724079 
rclavicle 0.000000 0.000000 
rhumerus -44.497789 -20.102551 -74.716440 
rradius 36.047972 
rwrist 26.162606 
rhand -18.986400 -19.393803 
rfingers 0.000000 
rthumb 7.318296 -49.247214 
lclavicle 0.000000 0.000000 
lhumerus -46.293638 42.416148 60.228067 
lradius 21.988005 
lwrist -74.242767 
lhand -18.626101 -0.671491 
lfingers 0.000000 
lthumb 7.666087 29.169574 
rfemur -39.554873 2.871860 10.985979 
rtibia 26.317984 
rfoot -12.309518 -11.335628 
rtoes -35.181388 
lfemur 7.572398 -4.002213 -26.457241 
ltibia 10.180249 
lfoot -20.863050 0.027535 
ltoes -34.286803 
253
root -5.944579 17.522316 -5.773424 2.130619 10.568057 2.193928
lowerback -12.022170 -1.280749 -4.945886 
upperback 1.609560 -0.947401 -0.679326 
thorax 8.564458 -0.694006 1.881442 
lowerneck -4.897113 -2.836327 3.224886 
upperneck 12.409142 -4.120590 -3.098050 
head 4.383178 -2.204775 -1.700247 
rclavicle 0.000000 0.000000 
rhumerus -44.773134 -20.354592 -74.444289 
rradius 35.880451 
rwrist 26.250512 
rhand -19.071121 -19.424040 
rfingers 0.000000 
rthumb 7.236466 -49.280289 
lclavicle 0.000000 0.000000 
lhumerus -46.865764 43.379418 59.248118 
lradius 21.927136 
lwrist -75.432777 
lhand -18.824261 -0.858613 
lfingers 0.000000 
lthumb 7.474779 28.989364 
rfemur -38.804195 3.297546 11.045401 
rtibia 25.530932 
rfoot -11.884671 -11.257934 
rtoes -35.418522 
lfemur 7.660466 -4.166339 -26.382643 
ltibia 10.392857 
lfoot -21.150905 0.060989 
ltoes -34.077497 
254
root -5.950863 17.501603 -5.660545 2.254598 10.591446 2.304869
lowerback -12.056006 -1.254025 -5.036355 
upperback 1.536658 -0.901717 -0.655606 
thorax 8.503646 -0.675017 1.967077 
lowerneck -4.937588 -2.859622 3.189145 
upperneck 12.375959 -4.146361 -3.090378 
head 4.379871 -2.217068 -1.693428 
rclavicle 0.000000 0.000000 
rhumerus -45.096718 -20.484862 -74.134574 
rradius 35.588007 
rwrist 26.264975 
rhand -19.202774 -19.427445 
rfingers 0.000000 
rthumb 7.109460 -49.288061 
lclavicle 0.000000 0.000000 
lhumerus -46.791596 43.215223 59.418074 
lradius 21.956737 
lwrist -74.811967 
lhand -18.772557 -0.788060 
lfingers 0.000000 
lthumb 7.524670 29.058111 
rfemur -37.921430 3.846182 10.896011 
rtibia 24.767130 
rfoot -11.271990 -11.352249 
rtoes -35.448554 
lfemur 7.730819 -4.080250 -26.405543 
ltibia 10.855171 
lfoot -21.425529 -0.098288 
ltoes -34.428059 
255
root -5.954954 17.488257 -5.539795 2.271744 10.537351 2.090773
lowerback -12.292430 -1.179713 -4.651427 
upperback 1.625642 -0.840393 -0.654038 
thorax 8.724284 -0.631024 1.759865 
lowerneck -5.009703 -2.874648 3.321668 
upperneck 12.146390 -4.152982 -3.167424 
head 4.316970 -2.211862 -1.735608 
rclavicle 0.000000 0.000000 
rhumerus -45.261102 -20.947820 -73.905827 
rradius 35.183996 
rwrist 27.109530 
rhand -19.077754 -19.248639 
rfingers 0.000000 
rthumb 7.230111 -49.105117 
lclavicle 0.000000 0.000000 
lhumerus -46.759923 43.607283 59.070485 
lradius 21.909753 
lwrist -75.108657 
lhand -18.998110 -0.631161 
lfingers 0.000000 
lthumb 7.307014 29.222674 
rfemur -36.955979 4.459410 11.151908 
rtibia 24.108612 
rfoot -10.788906 -11.402079 
rtoes -34.211713 
lfemur 7.952493 -4.084211 -26.070063 
ltibia 11.257063 
lfoot -21.745107 -0.523217 
ltoes -32.999841 
256
root -5.963707 17.473844 -5.425436 2.372668 10.693679 2.058505
lowerback -12.381408 -1.233520 -4.630962 
upperback 1.637057 -0.916275 -0.536795 
thorax 8.794950 -0.669937 1.857563 
lowerneck -5.084030 -2.877212 3.188424 
upperneck 11.573055 -4.141969 -3.137624 
head 4.621336 -2.191489 -1.877832 
rclavicle 0.000000 0.000000 
rhumerus -45.349030 -21.094076 -73.555368 
rradius 34.861080 
rwrist 27.310168 
rhand -19.141391 -19.287342 
rfingers 0.000000 
rthumb 7.168651 -49.145981 
lclavicle 0.000000 0.000000 
lhumerus -46.850511 43.909997 59.032316 
lradius 22.038510 
lwrist -75.027060 
lhand -19.248232 -0.611333 
lfingers 0.000000 
lthumb 7.065534 29.250753 
rfemur -36.069387 4.842789 11.242041 
rtibia 23.564591 
rfoot -10.142938 -11.542146 
rtoes -33.832167 
lfemur 7.948314 -4.012222 -25.855619 
ltibia 11.808990 
lfoot -21.921437 -0.866077 
ltoes -33.251874 
257
root -5.971382 17.451248 -5.303706 2.515147 10.732279 2.301254
lowerback -12.486479 -1.264826 -4.846370 
upperback 1.632178 -0.919365 -0.553542 
thorax 8.854900 -0.683659 1.958869 
lowerneck -5.131101 -2.862100 3.345453 
upperneck 11.376261 -4.100083 -3.347065 
head 4.553865 -2.170019 -1.971145 
rclavicle 0.000000 0.000000 
rhumerus -45.510371 -21.387243 -73.216546 
rradius 34.476232 
rwrist 27.817230 
rhand -19.133401 -19.212173 
rfingers 0.000000 
rthumb 7.176397 -49.070494 
lclavicle 0.000000 0.000000 
lhumerus -46.428573 43.505525 59.608383 
lradius 22.108081 
lwrist -74.068861 
lhand -19.243769 -0.226059 
lfingers 0.000000 
lthumb 7.069816 29.635869 
rfemur -35.375451 4.951538 11.222603 
rtibia 23.513770 
rfoot -10.298168 -11.402301 
rtoes -34.407744 
lfemur 8.347998 -4.020961 -26.015022 
ltibia 11.725367 
lfoot -21.948061 -1.020608 
ltoes -33.082125 
258
root -5.974672 17.426611 -5.175469 2.587402 10.724751 2.788541
lowerback -12.659028 -1.291597 -5.231628 
upperback 1.748246 -0.874913 -0.661476 
thorax 9.084790 -0.686970 2.065041 
lowerneck -5.223067 -2.847218 3.373571 
upperneck 11.142646 -4.059176 -3.422811 
head 4.486971 -2.146229 -1.995640 
rclavicle 0.000000 0.000000 
rhumerus -45.523286 -21.643272 -72.997265 
rradius 34.163508 
rwrist 28.023700 
rhand -19.042587 -19.288049 
rfingers 0.000000 
rthumb 7.264085 -49.143306 
lclavicle 0.000000 0.000000 
lhumerus -46.485562 44.027136 59.265043 
lradius 22.185403 
lwrist -74.725999 
lhand -19.160923 -0.313475 
lfingers 0.000000 
lthumb 7.149795 29.545743 
rfemur -34.595143 4.874844 11.020295 
rtibia 23.628124 
rfoot -10.646993 -10.993877 
rtoes -34.784342 
lfemur 8.965397 -3.857922 -26.486320 
ltibia 11.539804 
lfoot -21.876488 -0.850794 
ltoes -34.694560 
259
root -5.986525 17.410328 -5.056304 2.789913 10.991460 2.471588
lowerback -12.883585 -1.346501 -4.920122 
upperback 1.700862 -0.992742 -0.523759 
thorax 9.167110 -0.730570 2.010785 
lowerneck -5.258527 -2.839315 3.493482 
upperneck 10.967496 -4.030769 -3.599459 
head 4.426538 -2.132223 -2.072056 
rclavicle 0.000000 0.000000 
rhumerus -45.695556 -21.954852 -72.633896 
rradius 33.821915 
rwrist 28.394815 
rhand -19.026866 -19.256062 
rfingers 0.000000 
rthumb 7.279186 -49.110821 
lclavicle 0.000000 0.000000 
lhumerus -46.374357 44.056899 59.347158 
lradius 22.162623 
lwrist -74.687196 
lhand -19.340033 -0.423889 
lfingers 0.000000 
lthumb 6.976949 29.441106 
rfemur -33.875732 4.947281 11.566050 
rtibia 23.360369 
rfoot -10.946616 -11.055939 
rtoes -34.044880 
lfemur 8.754318 -3.745729 -25.929547 
ltibia 12.235210 
lfoot -22.046402 -1.116057 
ltoes -35.936211 
260
root -5.998223 17.407898 -4.938359 2.985247 11.198351 2.431292
lowerback -13.006680 -1.420528 -4.860473 
upperback 1.658540 -1.100757 -0.443522 
thorax 9.200177 -0.781187 2.039542 
lowerneck -5.362070 -2.815073 3.360636 
upperneck 10.864085 -3.983748 -3.554858 
head 4.414679 -2.108929 -2.030427 
rclavicle 0.000000 0.000000 
rhumerus -45.817950 -22.174719 -72.308007 
rradius 33.527462 
rwrist 28.624544 
rhand -18.996136 -19.153593 
rfingers 0.000000 
rthumb 7.308915 -49.007404 
lclavicle 0.000000 0.000000 
lhumerus -45.658458 43.327032 60.401032 
lradius 22.212717 
lwrist -72.920068 
lhand -19.697908 0.044182 
lfingers 0.000000 
lthumb 6.631471 29.920297 
rfemur -33.339675 5.150177 11.727196 
rtibia 23.206547 
rfoot -9.966196 -11.220600 
rtoes -34.513567 
lfemur 8.929508 -3.810201 -25.693926 
ltibia 12.226706 
lfoot -21.833013 -1.314453 
ltoes -36.139671 
261
root -6.010195 17.426979 -4.823836 3.126617 11.392330 2.676857
lowerback -13.029229 -1.495490 -5.140517 
upperback 1.650851 -1.157282 -0.423715 
thorax 9.217026 -0.824169 2.206506 
lowerneck -5.423737 -2.821279 3.334833 
upperneck 10.752539 -3.971112 -3.677557 
head 4.385507 -2.107320 -2.065605 
rclavicle 0.000000 0.000000 
rhumerus -45.991751 -22.555030 -71.857491 
rradius 33.290947 
rwrist 29.066519 
rhand -19.003507 -19.254818 
rfingers 0.000000 
rthumb 7.301790 -49.108817 
lclavicle 0.000000 0.000000 
lhumerus -45.996777 44.020573 59.925094 
lradius 22.364787 
lwrist -73.976814 
lhand -19.685497 -0.384841 
lfingers 0.000000 
lthumb 6.643447 29.490976 
rfemur -33.336944 6.065138 11.135661 
rtibia 23.256063 
rfoot -7.676134 -13.015100 
rtoes -33.070000 
lfemur 9.762274 -4.166598 -25.851666 
ltibia 11.151642 
lfoot -21.081590 -1.357315 
ltoes -34.408200 
262
root -6.021240 17.440360 -4.715565 3.281205 11.562319 2.436263
lowerback -13.120487 -1.517638 -4.838314 
upperback 1.632673 -1.236145 -0.327124 
thorax 9.250016 -0.848181 2.122238 
lowerneck -5.397986 -2.831207 3.355381 
upperneck 10.486854 -3.969265 -3.717325 
head 4.283158 -2.102333 -2.073787 
rclavicle 0.000000 0.000000 
rhumerus -46.081358 -22.770449 -71.649784 
rradius 33.093074 
rwrist 29.042607 
rhand -18.919782 -19.294331 
rfingers 0.000000 
rthumb 7.382602 -49.145530 
lclavicle 0.000000 0.000000 
lhumerus -45.224488 43.398448 60.861038 
lradius 22.434743 
lwrist -73.394599 
lhand -19.416254 -0.066586 
lfingers 0.000000 
lthumb 6.903368 29.800868 
rfemur -33.254032 6.826637 11.053536 
rtibia 22.789732 
rfoot -5.426336 -15.116302 
rtoes -31.134994 
lfemur 10.086420 -4.456162 -25.470819 
ltibia 10.833281 
lfoot -20.705388 -1.222776 
ltoes -34.818639 
